<?xml version="1.0" standalone="no"?>
<!DOCTYPE svg PUBLIC "-//W3C//DTD SVG 20010904//EN"
 "http://www.w3.org/TR/2001/REC-SVG-20010904/DTD/svg10.dtd">
<svg version="1.0" xmlns="http://www.w3.org/2000/svg"
 width="616.000000pt" height="615.000000pt" viewBox="0 0 616.000000 615.000000"
 preserveAspectRatio="xMidYMid meet">

<g transform="translate(0.000000,615.000000) scale(0.100000,-0.100000)"
fill="#000000" stroke="none">
<path d="M1860 3855 l-125 -125 325 -325 325 -325 -323 -323 -322 -322 128
-128 127 -127 453 453 452 452 -448 448 c-246 246 -452 447 -457 447 -6 0 -66
-56 -135 -125z"/>
<path d="M2950 3855 l-125 -125 323 -323 322 -322 -325 -325 -325 -325 130
-130 130 -130 452 453 453 452 -450 450 c-247 247 -452 450 -455 450 -3 0 -61
-56 -130 -125z"/>
</g>
</svg>
